<?xml version="1.0" standalone="no"?>
<!DOCTYPE svg PUBLIC "-//W3C//DTD SVG 20010904//EN"
 "http://www.w3.org/TR/2001/REC-SVG-20010904/DTD/svg10.dtd">
<svg version="1.0" xmlns="http://www.w3.org/2000/svg"
 width="450.000000pt" height="450.000000pt" viewBox="0 0 450.000000 450.000000"
 preserveAspectRatio="xMidYMid meet">
<metadata>
Created by potrace 1.11, written by Peter Selinger 2001-2013
</metadata>
<g transform="translate(0.000000,450.000000) scale(0.100000,-0.100000)"
fill="#000000" stroke="none">
<path d="M2160 4197 c-36 -19 -105 -58 -155 -87 -271 -158 -333 -194 -465
-275 -80 -48 -181 -109 -225 -135 -44 -25 -125 -73 -180 -105 -55 -32 -145
-84 -200 -115 -243 -137 -371 -213 -387 -227 -17 -15 -18 -75 -18 -994 0 -537
3 -985 6 -993 3 -9 50 -41 103 -71 91 -52 253 -150 428 -259 81 -51 97 -60
223 -131 124 -69 155 -87 165 -95 13 -10 219 -126 360 -203 61 -33 124 -70
140 -82 17 -12 59 -37 95 -57 36 -19 91 -50 123 -67 68 -39 87 -37 179 18 34
20 126 73 203 116 77 43 163 92 190 108 28 17 79 47 115 67 99 56 524 300 620
357 47 27 117 67 155 88 146 80 310 178 323 193 18 23 17 1965 -1 2002 -7 14
-33 36 -58 50 -70 38 -178 99 -234 133 -27 17 -88 51 -135 77 -47 26 -139 79
-205 117 -66 38 -125 72 -130 74 -6 2 -56 31 -110 63 -127 75 -190 111 -405
234 -96 54 -223 127 -282 161 -138 80 -155 82 -238 38z m-490 -964 c0 -10 0
-302 0 -648 0 -494 2 -634 12 -647 11 -13 293 -178 497 -291 l55 -31 55 30
c153 83 488 279 499 292 10 13 12 153 12 647 0 346 0 638 0 648 0 43 49 22
350 -154 69 -40 145 -84 170 -97 89 -49 80 30 80 -737 l0 -683 -152 -87 c-84
-49 -198 -114 -253 -145 -55 -31 -239 -136 -408 -233 -272 -156 -313 -177
-352 -177 -39 0 -80 21 -352 177 -169 97 -353 202 -408 233 -55 31 -169 96
-252 145 l-153 87 0 683 c0 767 -9 688 80 737 25 13 106 60 180 103 74 43 169
98 210 121 81 46 130 56 130 27z"/>
</g>
</svg>
